<svg xmlns="http://www.w3.org/2000/svg" version="1.1" xmlns:xlink="http://www.w3.org/1999/xlink" xmlns:svgjs="http://svgjs.dev/svgjs" width="1500" height="1500" viewBox="0 0 1500 1500"><rect width="1500" height="1500" fill="#ffffff"></rect><g transform="matrix(0.6666666666666666,0,0,0.6666666666666666,249.39393939393938,633.6427768277588)"><svg viewBox="0 0 396 92" data-background-color="#ffffff" preserveAspectRatio="xMidYMid meet" height="348" width="1500" xmlns="http://www.w3.org/2000/svg" xmlns:xlink="http://www.w3.org/1999/xlink"><g id="tight-bounds" transform="matrix(1,0,0,1,0.2400000000000091,0.14165746485429054)"><svg viewBox="0 0 395.52 91.71647564168236" height="91.71647564168236" width="395.52"><g><svg viewBox="0 0 548.0901308357793 127.09570978520999" height="91.71647564168236" width="395.52"><g transform="matrix(1,0,0,1,152.57013083577928,36.57092685823335)"><svg viewBox="0 0 395.52 53.953856068743285" height="53.953856068743285" width="395.52"><g id="textblocktransform"><svg viewBox="0 0 395.52 53.953856068743285" height="53.953856068743285" width="395.52" id="textblock"><g><svg viewBox="0 0 395.52 53.953856068743285" height="53.953856068743285" width="395.52"><g transform="matrix(1,0,0,1,0,0)"><svg width="395.52" viewBox="0.75 -37.5 279.27 38.1" height="53.953856068743285" data-palette-color="#064276"><path d="M0.75-34.45L25.35-34.45 24.85-30.4 15.3-30.4 15.3 0 10.55 0 10.55-30.4 0.75-30.4 0.75-34.45ZM40.5-26.95Q46.05-26.95 49.12-23.25 52.2-19.55 52.2-13.2L52.2-13.2Q52.2-9.1 50.8-5.98 49.4-2.85 46.75-1.13 44.1 0.6 40.45 0.6L40.45 0.6Q34.9 0.6 31.8-3.1 28.7-6.8 28.7-13.15L28.7-13.15Q28.7-17.25 30.1-20.38 31.5-23.5 34.15-25.23 36.8-26.95 40.5-26.95L40.5-26.95ZM40.5-23.25Q33.65-23.25 33.65-13.15L33.65-13.15Q33.65-3.1 40.45-3.1L40.45-3.1Q47.25-3.1 47.25-13.2L47.25-13.2Q47.25-23.25 40.5-23.25L40.5-23.25ZM69.7-26.95Q75.25-26.95 78.32-23.25 81.4-19.55 81.4-13.2L81.4-13.2Q81.4-9.1 80-5.98 78.59-2.85 75.95-1.13 73.3 0.6 69.65 0.6L69.65 0.6Q64.09 0.6 61-3.1 57.9-6.8 57.9-13.15L57.9-13.15Q57.9-17.25 59.3-20.38 60.7-23.5 63.34-25.23 66-26.95 69.7-26.95L69.7-26.95ZM69.7-23.25Q62.84-23.25 62.84-13.15L62.84-13.15Q62.84-3.1 69.65-3.1L69.65-3.1Q76.45-3.1 76.45-13.2L76.45-13.2Q76.45-23.25 69.7-23.25L69.7-23.25ZM94.24 0.6Q91.69 0.6 90.22-0.93 88.74-2.45 88.74-5.2L88.74-5.2 88.74-36.95 93.34-37.5 93.34-5.3Q93.34-4.2 93.72-3.7 94.09-3.2 94.99-3.2L94.99-3.2Q95.94-3.2 96.69-3.5L96.69-3.5 97.89-0.3Q96.24 0.6 94.24 0.6L94.24 0.6ZM112.89-34.45L137.49-34.45 136.99-30.4 127.44-30.4 127.44 0 122.69 0 122.69-30.4 112.89-30.4 112.89-34.45ZM154.19-26.95Q155.59-26.95 156.79-26.65L156.79-26.65 155.94-22.15Q154.74-22.45 153.64-22.45L153.64-22.45Q151.19-22.45 149.69-20.65 148.19-18.85 147.34-15.05L147.34-15.05 147.34 0 142.74 0 142.74-26.35 146.69-26.35 147.14-21Q148.19-23.95 149.99-25.45 151.79-26.95 154.19-26.95L154.19-26.95ZM179.78-6.15Q179.78-4.55 180.33-3.78 180.88-3 181.98-2.6L181.98-2.6 180.93 0.6Q178.88 0.35 177.63-0.55 176.38-1.45 175.78-3.35L175.78-3.35Q173.13 0.6 167.93 0.6L167.93 0.6Q164.03 0.6 161.78-1.6 159.53-3.8 159.53-7.35L159.53-7.35Q159.53-11.55 162.56-13.8 165.58-16.05 171.13-16.05L171.13-16.05 175.18-16.05 175.18-18Q175.18-20.8 173.83-22 172.48-23.2 169.68-23.2L169.68-23.2Q166.78-23.2 162.58-21.8L162.58-21.8 161.43-25.15Q166.33-26.95 170.53-26.95L170.53-26.95Q175.18-26.95 177.48-24.68 179.78-22.4 179.78-18.2L179.78-18.2 179.78-6.15ZM168.98-2.85Q172.93-2.85 175.18-6.95L175.18-6.95 175.18-13 171.73-13Q164.43-13 164.43-7.6L164.43-7.6Q164.43-5.25 165.58-4.05 166.73-2.85 168.98-2.85L168.98-2.85ZM198.83-26.95Q201.18-26.95 203.13-26.28 205.08-25.6 206.88-24.1L206.88-24.1 204.68-21.2Q203.28-22.2 201.96-22.68 200.63-23.15 199.03-23.15L199.03-23.15Q195.83-23.15 194.06-20.6 192.28-18.05 192.28-13.05L192.28-13.05Q192.28-8.05 194.03-5.68 195.78-3.3 199.03-3.3L199.03-3.3Q200.58-3.3 201.88-3.78 203.18-4.25 204.78-5.3L204.78-5.3 206.88-2.3Q203.28 0.6 198.83 0.6L198.83 0.6Q193.48 0.6 190.41-3 187.33-6.6 187.33-12.95L187.33-12.95Q187.33-17.15 188.73-20.3 190.13-23.45 192.71-25.2 195.28-26.95 198.83-26.95L198.83-26.95ZM213.13-36.95L217.73-37.5 217.73 0 213.13 0 213.13-36.95ZM227.73-26.35L232.88-26.35 223.18-14.7 233.98 0 228.48 0 218.03-14.4 227.73-26.35ZM258.63-13.95Q258.63-12.8 258.53-11.6L258.53-11.6 241.73-11.6Q242.03-7.25 243.93-5.2 245.83-3.15 248.83-3.15L248.83-3.15Q250.73-3.15 252.33-3.7 253.93-4.25 255.68-5.45L255.68-5.45 257.68-2.7Q253.48 0.6 248.48 0.6L248.48 0.6Q242.98 0.6 239.9-3 236.83-6.6 236.83-12.9L236.83-12.9Q236.83-17 238.15-20.18 239.48-23.35 241.95-25.15 244.43-26.95 247.78-26.95L247.78-26.95Q253.03-26.95 255.83-23.5 258.63-20.05 258.63-13.95L258.63-13.95ZM254.08-15L254.08-15.3Q254.08-19.2 252.53-21.25 250.98-23.3 247.88-23.3L247.88-23.3Q242.23-23.3 241.73-15L241.73-15 254.08-15ZM277.42-26.95Q278.82-26.95 280.02-26.65L280.02-26.65 279.17-22.15Q277.97-22.45 276.87-22.45L276.87-22.45Q274.42-22.45 272.92-20.65 271.42-18.85 270.57-15.05L270.57-15.05 270.57 0 265.97 0 265.97-26.35 269.92-26.35 270.37-21Q271.42-23.95 273.22-25.45 275.02-26.95 277.42-26.95L277.42-26.95Z" opacity="1" transform="matrix(1,0,0,1,0,0)" fill="#064276" class="wordmark-text-0" data-fill-palette-color="primary" id="text-0"></path></svg></g></svg></g></svg></g></svg></g><g><svg viewBox="0 0 127.09570978520999 127.09570978520999" height="127.09570978520999" width="127.09570978520999"><g><svg></svg></g><g id="icon-0"><svg viewBox="0 0 127.09570978520999 127.09570978520999" height="127.09570978520999" width="127.09570978520999"><g><path d="M0 63.548c0-35.097 28.451-63.548 63.548-63.548 35.097 0 63.548 28.451 63.548 63.548 0 35.097-28.451 63.548-63.548 63.548-35.097 0-63.548-28.451-63.548-63.548zM63.548 122.23c32.409 0 58.682-26.273 58.682-58.682 0-32.409-26.273-58.682-58.682-58.682-32.409 0-58.682 26.273-58.682 58.682 0 32.409 26.273 58.682 58.682 58.682z" data-fill-palette-color="accent" fill="#f98e54" stroke="transparent"></path></g><g transform="matrix(1,0,0,1,30.664946526398467,30.695198329204636)"><svg viewBox="0 0 65.76581673241306 65.70531312680072" height="65.70531312680072" width="65.76581673241306"><g><svg xmlns="http://www.w3.org/2000/svg" xmlns:xlink="http://www.w3.org/1999/xlink" version="1.1" x="0" y="0" viewBox="17.565250000000002 12.853000000000005 50.80373870900118 50.75699999999999" enable-background="new 0 0 80 80" xml:space="preserve" height="65.70531312680072" width="65.76581673241306" class="icon-cg-0" data-fill-palette-color="accent" id="cg-0"><g fill="#f98e54" data-fill-palette-color="accent"><path fill="#f98e54" d="M24.562 63.61c-1.87 0-3.628-0.728-4.95-2.05-2.729-2.73-2.729-7.17 0-9.9l14.116-14.116c-2.121-5.344-1.598-11.506 1.467-16.403 3.246-5.19 9.01-8.288 15.419-8.288 0.206 0 0.413 0.003 0.618 0.01 1.202 0.039 2.265 0.786 2.707 1.904 0.442 1.117 0.18 2.387-0.669 3.236l-8.178 8.176c-0.403 0.403-0.403 1.061 0.001 1.465l8.435 8.435c0.391 0.391 1.074 0.391 1.465 0l8.213-8.213c0.569-0.569 1.321-0.883 2.119-0.883 1.606 0 2.933 1.258 3.019 2.864 0.269 5.092-1.644 10.078-5.246 13.68-3.397 3.398-7.916 5.27-12.723 5.27 0 0 0 0-0.001 0-2.319 0-4.636-0.454-6.777-1.321L29.512 61.56C28.19 62.882 26.433 63.61 24.562 63.61zM48.637 16.979c-4.207 0.542-7.875 2.805-10.051 6.283-2.591 4.142-2.852 9.445-0.681 13.84l0.636 1.286-16.101 16.1c-1.169 1.17-1.169 3.073 0 4.243 1.133 1.132 3.11 1.133 4.243 0L42.77 42.646l1.292 0.652c1.941 0.98 4.125 1.498 6.313 1.498 3.738 0 7.252-1.455 9.895-4.098 2.231-2.231 3.629-5.146 4-8.24l-6.448 6.448c-0.951 0.951-2.216 1.475-3.561 1.475s-2.609-0.523-3.561-1.474l-8.436-8.436c-1.962-1.963-1.962-5.157-0.001-7.12L48.637 16.979z" data-fill-palette-color="accent"></path></g></svg></g></svg></g></svg></g></svg></g></svg></g><defs></defs></svg><rect width="395.52" height="91.71647564168236" fill="none" stroke="none" visibility="hidden"></rect></g></svg></g></svg>